HIERARCHY
ROOT hips
{
	OFFSET 0.000000 104.274902 0.000000
	CHANNELS 6 Xposition Yposition Zposition Xrotation Yrotation Zrotation
	JOINT spine
	{
		OFFSET 0.000000 10.181549 0.131524
		CHANNELS 6 Xposition Yposition Zposition Xrotation Yrotation Zrotation
		JOINT chest
		{
			OFFSET 0.000000 9.893990 -1.470706
			CHANNELS 3 Xrotation Yrotation Zrotation
			JOINT upperChest
			{
				OFFSET 0.000000 9.220787 -1.370637
				CHANNELS 3 Xrotation Yrotation Zrotation
				JOINT neck
				{
					OFFSET 0.000000 16.740372 -2.049022
					CHANNELS 6 Xposition Yposition Zposition Xrotation Yrotation Zrotation
					JOINT head
					{
						OFFSET 0.000000 9.617859 1.684976
						CHANNELS 6 Xposition Yposition Zposition Xrotation Yrotation Zrotation
						JOINT headEnd
						{
							OFFSET 0.000000 22.037384 7.501072
							CHANNELS 6 Xposition Yposition Zposition Xrotation Yrotation Zrotation
							End Site
							{
								OFFSET 0.000000 23.106567 -2.828246
							}
						}
					}
				}
				JOINT rightShoulder
				{
					OFFSET -4.570000 11.014877 -2.160840
					CHANNELS 6 Xposition Yposition Zposition Xrotation Yrotation Zrotation
					JOINT rightUpperArm
					{
						OFFSET -10.592867 -0.524796 -2.232105
						CHANNELS 3 Xrotation Yrotation Zrotation
						JOINT rightLowerArm
						{
							OFFSET -27.841497 0.000000 -0.000002
							CHANNELS 3 Xrotation Yrotation Zrotation
							JOINT rightHand
							{
								OFFSET -28.328812 0.000000 -0.000001
								CHANNELS 3 Xrotation Yrotation Zrotation
								JOINT rightThumbProximal
								{
									OFFSET -2.464798 -1.573990 2.681911
									CHANNELS 6 Xposition Yposition Zposition Xrotation Yrotation Zrotation
									JOINT rightThumbIntermediate
									{
										OFFSET -3.244781 -1.873383 1.873376
										CHANNELS 3 Xrotation Yrotation Zrotation
										JOINT rightThumbDistal
										{
											OFFSET -2.646263 -1.527817 1.527818
											CHANNELS 6 Xposition Yposition Zposition Xrotation Yrotation Zrotation
											JOINT rightHandThumb4
											{
												OFFSET -1.994591 -1.151581 1.151575
												CHANNELS 6 Xposition Yposition Zposition Xrotation Yrotation Zrotation
												End Site
												{
													OFFSET -1.860176 -1.142715 1.365483
												}
											}
										}
									}
								}
								JOINT rightIndexProximal
								{
									OFFSET -9.108299 -0.517883 2.259803
									CHANNELS 6 Xposition Yposition Zposition Xrotation Yrotation Zrotation
									JOINT rightIndexIntermediate
									{
										OFFSET -3.699997 0.000000 0.000000
										CHANNELS 3 Xrotation Yrotation Zrotation
										JOINT rightIndexDistal
										{
											OFFSET -2.850006 0.000000 0.000000
											CHANNELS 3 Xrotation Yrotation Zrotation
											JOINT rightHandIndex4
											{
												OFFSET -2.772194 0.000000 0.000000
												CHANNELS 3 Xrotation Yrotation Zrotation
												End Site
												{
													OFFSET -2.772202 0.000000 -0.000484
												}
											}
										}
									}
								}
								JOINT rightMiddleProximal
								{
									OFFSET -9.532501 0.000000 -0.000000
									CHANNELS 6 Xposition Yposition Zposition Xrotation Yrotation Zrotation
									JOINT rightMiddleIntermediate
									{
										OFFSET -3.699997 0.000000 0.000000
										CHANNELS 3 Xrotation Yrotation Zrotation
										JOINT rightMiddleDistal
										{
											OFFSET -2.949997 0.000000 0.000000
											CHANNELS 3 Xrotation Yrotation Zrotation
											JOINT rightHandMiddle4
											{
												OFFSET -2.946594 0.000000 0.000000
												CHANNELS 3 Xrotation Yrotation Zrotation
												End Site
												{
													OFFSET -2.946602 0.000000 -0.000982
												}
											}
										}
									}
								}
								JOINT rightRingProximal
								{
									OFFSET -9.103600 -0.043106 -1.865100
									CHANNELS 6 Xposition Yposition Zposition Xrotation Yrotation Zrotation
									JOINT rightRingIntermediate
									{
										OFFSET -3.379303 0.000000 0.000000
										CHANNELS 3 Xrotation Yrotation Zrotation
										JOINT rightRingDistal
										{
											OFFSET -2.889694 0.000000 0.000000
											CHANNELS 3 Xrotation Yrotation Zrotation
											JOINT rightHandRing4
											{
												OFFSET -2.638802 0.000000 0.000000
												CHANNELS 3 Xrotation Yrotation Zrotation
												End Site
												{
													OFFSET -2.638802 0.000000 0.004218
												}
											}
										}
									}
								}
								JOINT rightLittleProximal
								{
									OFFSET -8.076698 -0.486725 -3.806299
									CHANNELS 6 Xposition Yposition Zposition Xrotation Yrotation Zrotation
									JOINT rightLittleIntermediate
									{
										OFFSET -3.600006 0.000000 0.000000
										CHANNELS 3 Xrotation Yrotation Zrotation
										JOINT rightLittleDistal
										{
											OFFSET -2.099998 0.000000 0.000000
											CHANNELS 3 Xrotation Yrotation Zrotation
											JOINT rightHandPinky4
											{
												OFFSET -2.115791 0.000000 0.000000
												CHANNELS 3 Xrotation Yrotation Zrotation
												End Site
												{
													OFFSET -2.115799 0.000000 0.000174
												}
											}
										}
									}
								}
							}
						}
					}
				}
				JOINT leftShoulder
				{
					OFFSET 4.570400 11.014679 -2.160816
					CHANNELS 6 Xposition Yposition Zposition Xrotation Yrotation Zrotation
					JOINT leftUpperArm
					{
						OFFSET 10.592373 -0.524597 -2.232116
						CHANNELS 3 Xrotation Yrotation Zrotation
						JOINT leftLowerArm
						{
							OFFSET 27.841488 0.000000 0.000001
							CHANNELS 3 Xrotation Yrotation Zrotation
							JOINT leftHand
							{
								OFFSET 28.328808 0.000000 -0.000000
								CHANNELS 3 Xrotation Yrotation Zrotation
								JOINT leftThumbProximal
								{
									OFFSET 2.466103 -1.576202 2.681698
									CHANNELS 6 Xposition Yposition Zposition Xrotation Yrotation Zrotation
									JOINT leftThumbIntermediate
									{
										OFFSET 3.243317 -1.872528 1.872530
										CHANNELS 3 Xrotation Yrotation Zrotation
										JOINT leftThumbDistal
										{
											OFFSET 2.647881 -1.528763 1.528754
											CHANNELS 6 Xposition Yposition Zposition Xrotation Yrotation Zrotation
											JOINT leftHandThumb4
											{
												OFFSET 1.998924 -1.154083 1.154080
												CHANNELS 6 Xposition Yposition Zposition Xrotation Yrotation Zrotation
												End Site
												{
													OFFSET 1.884041 -1.149155 1.337651
												}
											}
										}
									}
								}
								JOINT leftIndexProximal
								{
									OFFSET 9.109299 -0.518005 2.259900
									CHANNELS 6 Xposition Yposition Zposition Xrotation Yrotation Zrotation
									JOINT leftIndexIntermediate
									{
										OFFSET 3.699997 0.000000 0.000000
										CHANNELS 3 Xrotation Yrotation Zrotation
										JOINT leftIndexDistal
										{
											OFFSET 2.850006 0.000000 0.000000
											CHANNELS 3 Xrotation Yrotation Zrotation
											JOINT leftHandIndex4
											{
												OFFSET 2.774895 0.000000 0.000000
												CHANNELS 3 Xrotation Yrotation Zrotation
												End Site
												{
													OFFSET 2.774902 0.000000 -0.000072
												}
											}
										}
									}
								}
								JOINT leftMiddleProximal
								{
									OFFSET 9.533401 0.000000 0.000000
									CHANNELS 6 Xposition Yposition Zposition Xrotation Yrotation Zrotation
									JOINT leftMiddleIntermediate
									{
										OFFSET 3.699997 0.000000 0.000000
										CHANNELS 3 Xrotation Yrotation Zrotation
										JOINT leftMiddleDistal
										{
											OFFSET 2.949997 0.000000 0.000000
											CHANNELS 3 Xrotation Yrotation Zrotation
											JOINT leftHandMiddle4
											{
												OFFSET 2.952896 0.000000 0.000000
												CHANNELS 3 Xrotation Yrotation Zrotation
												End Site
												{
													OFFSET 2.952904 0.000000 0.000165
												}
											}
										}
									}
								}
								JOINT leftRingProximal
								{
									OFFSET 9.104500 -0.042999 -1.865101
									CHANNELS 6 Xposition Yposition Zposition Xrotation Yrotation Zrotation
									JOINT leftRingIntermediate
									{
										OFFSET 3.149994 0.000000 0.000000
										CHANNELS 3 Xrotation Yrotation Zrotation
										JOINT leftRingDistal
										{
											OFFSET 2.950005 0.000000 0.000000
											CHANNELS 3 Xrotation Yrotation Zrotation
											JOINT leftHandRing4
											{
												OFFSET 2.644302 0.000000 0.000000
												CHANNELS 3 Xrotation Yrotation Zrotation
												End Site
												{
													OFFSET 2.644302 0.000000 0.000083
												}
											}
										}
									}
								}
								JOINT leftLittleProximal
								{
									OFFSET 8.077805 -0.486893 -3.806302
									CHANNELS 6 Xposition Yposition Zposition Xrotation Yrotation Zrotation
									JOINT leftLittleIntermediate
									{
										OFFSET 3.600006 0.000000 0.000000
										CHANNELS 3 Xrotation Yrotation Zrotation
										JOINT leftLittleDistal
										{
											OFFSET 2.099998 0.000000 0.000000
											CHANNELS 3 Xrotation Yrotation Zrotation
											JOINT leftHandPinky4
											{
												OFFSET 2.125496 0.000000 0.000000
												CHANNELS 3 Xrotation Yrotation Zrotation
												End Site
												{
													OFFSET 2.125504 0.000000 -0.001254
												}
											}
										}
									}
								}
							}
						}
					}
				}
			}
		}
	}
	JOINT rightUpperLeg
	{
		OFFSET -8.207800 -6.751701 -1.599544
		CHANNELS 6 Xposition Yposition Zposition Xrotation Yrotation Zrotation
		JOINT rightLowerLeg
		{
			OFFSET 0.000004 -44.370152 0.345934
			CHANNELS 3 Xrotation Yrotation Zrotation
			JOINT rightFoot
			{
				OFFSET 0.000004 -44.423664 -3.043535
				CHANNELS 3 Xrotation Yrotation Zrotation
				JOINT rightToes
				{
					OFFSET 0.000001 -8.728691 10.710592
					CHANNELS 3 Xrotation Yrotation Zrotation
					JOINT rightToesEnd
					{
						OFFSET 0.000000 -0.000665 9.278101
						CHANNELS 3 Xrotation Yrotation Zrotation
						End Site
						{
							OFFSET 0.000000 -0.000665 9.278103
						}
					}
				}
			}
		}
	}
	JOINT leftUpperLeg
	{
		OFFSET 8.207800 -6.751701 -1.599544
		CHANNELS 6 Xposition Yposition Zposition Xrotation Yrotation Zrotation
		JOINT leftLowerLeg
		{
			OFFSET 0.000004 -44.370037 0.346940
			CHANNELS 3 Xrotation Yrotation Zrotation
			JOINT leftFoot
			{
				OFFSET 0.000004 -44.423611 -3.044388
				CHANNELS 3 Xrotation Yrotation Zrotation
				JOINT leftToes
				{
					OFFSET 0.000001 -8.728690 10.710592
					CHANNELS 3 Xrotation Yrotation Zrotation
					JOINT leftToesEnd
					{
						OFFSET 0.000000 -0.000680 9.278101
						CHANNELS 3 Xrotation Yrotation Zrotation
						End Site
						{
							OFFSET 0.000000 -0.000680 9.278101
						}
					}
				}
			}
		}
	}
}
MOTION
Frames: 4
Frame Time: 0.033333
4.939717 102.801453 -0.963734 -7.265545 -12.280636 -6.753196 0.000000 10.181554 0.131522 5.572914 -1.677411 0.923204 1.456114 0.150810 5.313242 1.446934 0.644122 5.222521 -0.000001 16.740376 -2.049024 6.907555 -0.757642 -2.054355 0.000001 9.617826 1.684978 12.444840 -3.285484 -2.331767 -0.000001 22.037369 7.501065 -0.000003 0.000001 -0.000000 -4.570003 11.014900 -2.160841 6.134065 11.631857 12.611627 70.823837 65.249460 -31.178570 -0.000900 86.629215 0.000975 -37.760721 4.148009 43.214395 -2.464794 -1.573990 2.681919 8.964920 -3.611347 -6.716583 -2.008621 -24.030590 3.354483 -2.646259 -1.527813 1.527826 3.455880 -14.538800 0.135343 -1.994601 -1.151584 1.151589 0.000000 0.000002 0.000001 -9.108296 -0.517877 2.259809 3.159004 -8.864530 59.654510 4.040354 -6.287145 72.335740 2.236576 -4.811435 65.413910 -0.000000 -0.000000 0.000001 -9.532495 -0.000001 0.000008 4.913313 -11.249713 68.028534 5.171871 -6.611842 85.330202 3.541263 -5.399339 67.577509 0.000000 0.000002 0.000001 -9.103602 -0.043114 -1.865097 7.508296 -11.661258 79.351232 6.465773 -5.443068 92.216447 2.466225 -4.348685 69.362477 -0.000000 0.000002 0.000000 -8.076709 -0.486734 -3.806292 10.248011 -18.269006 89.801114 6.000849 -6.060045 97.534589 1.529651 -5.406826 73.654970 -0.000001 -0.000001 0.000001 4.570397 11.014678 -2.160816 -0.240001 -22.197095 -13.470044 12.627646 -45.520445 -36.118771 0.000047 -101.634103 0.000032 -3.597353 -4.125381 -23.552727 2.466105 -1.576225 2.681700 8.774848 -0.950762 28.204238 1.313140 32.907814 -3.858233 2.647876 -1.528757 1.528737 2.117147 9.311149 -0.358631 1.998925 -1.154072 1.154061 0.000001 0.000002 -0.000000 9.109296 -0.518017 2.259904 0.339558 4.671353 -7.844282 0.387001 2.823612 -20.566212 0.034624 0.816855 -10.169820 -0.000001 -0.000005 -0.000002 9.533399 0.000000 0.000010 0.912560 8.769290 -15.831723 0.919049 3.991185 -33.400428 0.170545 1.488910 -12.264395 0.000000 0.000003 -0.000000 9.104503 -0.043005 -1.865094 2.555799 11.673071 -26.909166 1.710624 3.886851 -40.215457 0.544833 1.835111 -19.344144 0.000001 0.000002 -0.000003 8.077812 -0.486887 -3.806295 5.576043 16.029226 -36.940607 1.378645 4.077728 -45.645628 0.486568 2.853430 -20.524708 -0.000001 -0.000002 0.000000 -8.207801 -6.751717 -1.599545 3.262200 -0.470243 6.308062 9.003396 2.322093 5.044155 -5.168787 -0.704156 -6.396207 -3.623618 -0.000004 0.000001 0.000000 0.000001 -0.000000 8.207800 -6.751698 -1.599543 -10.496572 14.481282 13.580498 19.374808 8.500958 3.055922 -1.966117 16.809370 -7.307809 -2.848296 0.000005 0.000001 -0.000000 -0.000002 -0.000000 
4.254032 102.822121 -0.926784 -7.093566 -12.338848 -6.718648 0.000000 10.181562 0.131524 5.502067 -1.631546 0.767920 1.447846 0.159044 5.267637 1.439226 0.650875 5.176811 0.000001 16.740389 -2.049025 6.856241 -0.743678 -2.003525 0.000001 9.617833 1.684974 12.472667 -3.164815 -2.248190 -0.000001 22.037369 7.501073 -0.000001 0.000001 -0.000001 -4.569995 11.014869 -2.160845 6.134055 11.631855 12.611633 70.823843 65.249480 -31.178601 -0.000885 86.629195 0.000941 -37.760732 4.148011 43.214388 -2.464791 -1.573987 2.681913 8.964920 -3.611355 -6.716577 -2.008598 -24.030574 3.354495 -2.646266 -1.527814 1.527825 3.455883 -14.538795 0.135336 -1.994613 -1.151587 1.151581 0.000005 -0.000004 0.000003 -9.108312 -0.517884 2.259805 3.159000 -8.864536 59.654510 4.040366 -6.287117 72.335754 2.236571 -4.811432 65.413903 0.000003 -0.000003 0.000002 -9.532494 -0.000013 -0.000006 4.913306 -11.249713 68.028554 5.171885 -6.611842 85.330202 3.541238 -5.399341 67.577523 -0.000000 0.000002 0.000001 -9.103598 -0.043109 -1.865100 7.508301 -11.661256 79.351225 6.465791 -5.443085 92.216474 2.466250 -4.348682 69.362483 0.000000 0.000003 -0.000000 -8.076700 -0.486719 -3.806291 10.248002 -18.269016 89.801107 6.000837 -6.060068 97.534616 1.529681 -5.406825 73.654943 -0.000000 -0.000001 0.000002 4.570398 11.014679 -2.160820 -0.240002 -22.197095 -13.470041 12.627650 -45.520465 -36.118730 0.000086 -101.634103 0.000085 -3.597359 -4.125385 -23.552722 2.466105 -1.576209 2.681705 8.774852 -0.950765 28.204228 1.313128 32.907814 -3.858234 2.647884 -1.528748 1.528737 2.117145 9.311167 -0.358628 1.998909 -1.154082 1.154081 -0.000004 -0.000001 -0.000000 9.109295 -0.518019 2.259911 0.339563 4.671365 -7.844279 0.386992 2.823622 -20.566215 0.034641 0.816862 -10.169808 0.000000 0.000002 0.000003 9.533396 -0.000003 0.000005 0.912567 8.769281 -15.831725 0.919020 3.991203 -33.400421 0.170566 1.488901 -12.264413 0.000001 0.000003 -0.000001 9.104509 -0.042993 -1.865087 2.555773 11.673079 -26.909183 1.710625 3.886873 -40.215450 0.544830 1.835112 -19.344151 0.000001 0.000002 -0.000000 8.077805 -0.486890 -3.806289 5.576027 16.029243 -36.940593 1.378648 4.077725 -45.645639 0.486562 2.853438 -20.524732 0.000001 0.000000 0.000001 -8.207798 -6.751705 -1.599544 3.622642 -0.281947 6.673968 8.105223 2.300984 5.199078 -4.823461 -0.813926 -6.893529 -3.767293 -0.000002 0.000001 0.000000 0.000000 0.000000 8.207800 -6.751699 -1.599543 -10.188493 14.461001 13.867109 18.256174 8.643860 3.179978 -0.089332 16.531745 -8.070814 -2.753819 -0.000002 -0.000003 -0.000000 0.000002 0.000000 
3.617895 102.818977 -0.891731 -6.906149 -12.312388 -6.635949 0.000000 10.181548 0.131525 5.441606 -1.595207 0.629161 1.443289 0.165565 5.231663 1.435124 0.656292 5.140759 -0.000003 16.740364 -2.049022 6.795973 -0.725930 -1.988668 0.000001 9.617844 1.684973 12.486492 -3.085775 -2.109725 0.000001 22.037369 7.501070 -0.000001 0.000001 -0.000000 -4.570003 11.014884 -2.160841 6.134059 11.631857 12.611644 70.823802 65.249473 -31.178594 -0.000965 86.629222 0.001020 -37.760718 4.148000 43.214371 -2.464797 -1.574002 2.681906 8.964931 -3.611354 -6.716588 -2.008621 -24.030593 3.354494 -2.646267 -1.527809 1.527827 3.455883 -14.538802 0.135346 -1.994601 -1.151571 1.151579 0.000004 -0.000001 -0.000002 -9.108301 -0.517885 2.259792 3.158995 -8.864524 59.654490 4.040361 -6.287123 72.335733 2.236579 -4.811435 65.413910 0.000002 -0.000002 0.000002 -9.532509 0.000001 -0.000007 4.913295 -11.249701 68.028541 5.171888 -6.611841 85.330182 3.541229 -5.399348 67.577523 -0.000000 -0.000000 0.000001 -9.103614 -0.043100 -1.865104 7.508314 -11.661249 79.351225 6.465789 -5.443080 92.216433 2.466258 -4.348687 69.362470 -0.000000 -0.000002 0.000001 -8.076694 -0.486721 -3.806304 10.248018 -18.268997 89.801107 6.000857 -6.060044 97.534596 1.529669 -5.406818 73.654964 -0.000000 0.000003 0.000002 4.570395 11.014679 -2.160814 -0.239996 -22.197090 -13.470041 12.627628 -45.520462 -36.118758 -0.000017 -101.634082 -0.000007 -3.597358 -4.125398 -23.552738 2.466097 -1.576205 2.681693 8.774853 -0.950760 28.204237 1.313126 32.907814 -3.858220 2.647887 -1.528756 1.528748 2.117160 9.311173 -0.358626 1.998924 -1.154079 1.154070 0.000000 -0.000001 0.000003 9.109296 -0.518018 2.259896 0.339551 4.671379 -7.844258 0.387004 2.823596 -20.566227 0.034608 0.816859 -10.169811 -0.000001 -0.000003 0.000000 9.533396 -0.000002 -0.000003 0.912569 8.769287 -15.831721 0.919018 3.991205 -33.400421 0.170559 1.488910 -12.264413 -0.000000 0.000005 -0.000000 9.104498 -0.042993 -1.865105 2.555779 11.673080 -26.909180 1.710613 3.886862 -40.215454 0.544838 1.835105 -19.344125 -0.000001 0.000004 -0.000000 8.077822 -0.486886 -3.806309 5.576031 16.029242 -36.940597 1.378655 4.077731 -45.645645 0.486556 2.853427 -20.524727 0.000001 -0.000007 0.000002 -8.207798 -6.751704 -1.599544 3.832247 -0.140424 6.971512 7.482711 2.242888 5.350735 -4.617302 -0.926488 -7.360317 -3.861392 -0.000000 0.000002 0.000000 -0.000001 -0.000000 8.207797 -6.751716 -1.599542 -10.127525 14.367774 14.099608 17.761637 9.174307 3.304070 0.351284 15.976415 -8.518511 -2.527684 0.000002 0.000004 -0.000000 0.000000 0.000000 
3.046698 102.834686 -0.863800 -6.722809 -12.238231 -6.542117 0.000001 10.181551 0.131524 5.406820 -1.568228 0.534205 1.448860 0.170503 5.205003 1.441033 0.660351 5.114062 0.000000 16.740351 -2.049020 6.721211 -0.713668 -2.004992 0.000000 9.617883 1.684967 12.451545 -3.076589 -1.976835 0.000002 22.037369 7.501070 0.000000 -0.000001 0.000001 -4.569994 11.014856 -2.160837 6.134066 11.631859 12.611603 70.823878 65.249473 -31.178622 -0.000936 86.629188 0.001055 -37.760691 4.148015 43.214364 -2.464790 -1.573989 2.681906 8.964914 -3.611351 -6.716575 -2.008600 -24.030583 3.354493 -2.646274 -1.527817 1.527802 3.455869 -14.538800 0.135343 -1.994598 -1.151584 1.151574 0.000000 -0.000005 -0.000000 -9.108313 -0.517884 2.259811 3.159005 -8.864521 59.654483 4.040348 -6.287120 72.335754 2.236596 -4.811421 65.413903 0.000000 -0.000002 0.000005 -9.532488 -0.000003 0.000004 4.913265 -11.249698 68.028541 5.171875 -6.611841 85.330175 3.541239 -5.399342 67.577509 -0.000001 -0.000001 -0.000000 -9.103593 -0.043099 -1.865105 7.508290 -11.661254 79.351239 6.465771 -5.443070 92.216447 2.466247 -4.348687 69.362477 -0.000000 -0.000001 -0.000001 -8.076710 -0.486714 -3.806302 10.247985 -18.269023 89.801114 6.000848 -6.060042 97.534582 1.529673 -5.406829 73.654970 -0.000000 -0.000001 0.000001 4.570405 11.014664 -2.160813 -0.239997 -22.197080 -13.470036 12.627651 -45.520434 -36.118734 0.000009 -101.634103 0.000004 -3.597347 -4.125389 -23.552731 2.466106 -1.576218 2.681702 8.774840 -0.950771 28.204235 1.313128 32.907814 -3.858231 2.647905 -1.528744 1.528754 2.117157 9.311178 -0.358624 1.998925 -1.154109 1.154079 -0.000003 0.000005 -0.000000 9.109296 -0.518006 2.259906 0.339548 4.671370 -7.844264 0.387005 2.823617 -20.566222 0.034626 0.816842 -10.169831 -0.000001 -0.000002 -0.000001 9.533396 0.000006 0.000008 0.912558 8.769287 -15.831714 0.919033 3.991192 -33.400421 0.170562 1.488915 -12.264411 0.000000 0.000006 -0.000001 9.104500 -0.043007 -1.865100 2.555784 11.673066 -26.909154 1.710620 3.886860 -40.215474 0.544833 1.835099 -19.344139 -0.000002 0.000002 -0.000001 8.077822 -0.486886 -3.806295 5.576030 16.029240 -36.940597 1.378642 4.077721 -45.645618 0.486570 2.853422 -20.524718 -0.000000 0.000001 -0.000003 -8.207800 -6.751707 -1.599545 4.258909 -0.004718 7.218206 6.545804 2.135862 5.503331 -4.307359 -1.010341 -7.780973 -3.921819 -0.000004 -0.000000 0.000000 0.000000 -0.000000 8.207801 -6.751712 -1.599544 -10.016937 14.300147 14.263864 17.149931 9.737428 3.434462 0.833305 15.339534 -8.897705 -2.194230 -0.000005 -0.000000 -0.000000 -0.000001 -0.000000 
